<svg id="visual" viewBox="0 0 1920 1080" width="1920" height="1080" xmlns="http://www.w3.org/2000/svg" xmlns:xlink="http://www.w3.org/1999/xlink" version="1.1"><rect x="0" y="0" width="1920" height="1080" fill="#001220"></rect><defs><linearGradient id="grad1_0" x1="43.8%" y1="0%" x2="100%" y2="100%"><stop offset="14.444444444444446%" stop-color="#001220" stop-opacity="1"></stop><stop offset="85.55555555555554%" stop-color="#001220" stop-opacity="1"></stop></linearGradient></defs><defs><linearGradient id="grad2_0" x1="0%" y1="0%" x2="56.3%" y2="100%"><stop offset="14.444444444444446%" stop-color="#001220" stop-opacity="1"></stop><stop offset="85.55555555555554%" stop-color="#001220" stop-opacity="1"></stop></linearGradient></defs><g transform="translate(1920, 0)"><path d="M0 810C-153.1 795.4 -306.1 780.8 -405 701.5C-503.9 622.2 -548.6 478.2 -607.1 350.5C-665.6 222.8 -737.8 111.4 -810 0L0 0Z" fill="#53ef7d"></path></g><g transform="translate(0, 1080)"><path d="M0 -810C150.4 -793.9 300.8 -777.7 405 -701.5C509.2 -625.2 567.2 -488.9 627 -362C686.8 -235.1 748.4 -117.5 810 0L0 0Z" fill="#53ef7d"></path></g></svg>