<svg id="visual" viewBox="0 0 1920 1080" width="1920" height="1080" xmlns="http://www.w3.org/2000/svg" xmlns:xlink="http://www.w3.org/1999/xlink" version="1.1"><rect x="0" y="0" width="1920" height="1080" fill="#001220"></rect><path d="M0 655L45.7 658C91.3 661 182.7 667 274.2 663.5C365.7 660 457.3 647 548.8 669.5C640.3 692 731.7 750 823 762.3C914.3 774.7 1005.7 741.3 1097 714.8C1188.3 688.3 1279.7 668.7 1371.2 671.2C1462.7 673.7 1554.3 698.3 1645.8 708.5C1737.3 718.7 1828.7 714.3 1874.3 712.2L1920 710L1920 1081L1874.3 1081C1828.7 1081 1737.3 1081 1645.8 1081C1554.3 1081 1462.7 1081 1371.2 1081C1279.7 1081 1188.3 1081 1097 1081C1005.7 1081 914.3 1081 823 1081C731.7 1081 640.3 1081 548.8 1081C457.3 1081 365.7 1081 274.2 1081C182.7 1081 91.3 1081 45.7 1081L0 1081Z" fill="#fa7268"></path><path d="M0 747L45.7 766.3C91.3 785.7 182.7 824.3 274.2 835.3C365.7 846.3 457.3 829.7 548.8 820C640.3 810.3 731.7 807.7 823 798C914.3 788.3 1005.7 771.7 1097 767C1188.3 762.3 1279.7 769.7 1371.2 771.5C1462.7 773.3 1554.3 769.7 1645.8 758.3C1737.3 747 1828.7 728 1874.3 718.5L1920 709L1920 1081L1874.3 1081C1828.7 1081 1737.3 1081 1645.8 1081C1554.3 1081 1462.7 1081 1371.2 1081C1279.7 1081 1188.3 1081 1097 1081C1005.7 1081 914.3 1081 823 1081C731.7 1081 640.3 1081 548.8 1081C457.3 1081 365.7 1081 274.2 1081C182.7 1081 91.3 1081 45.7 1081L0 1081Z" fill="#ef5f67"></path><path d="M0 835L45.7 844.5C91.3 854 182.7 873 274.2 881.3C365.7 889.7 457.3 887.3 548.8 873.7C640.3 860 731.7 835 823 826.7C914.3 818.3 1005.7 826.7 1097 831.5C1188.3 836.3 1279.7 837.7 1371.2 839.3C1462.7 841 1554.3 843 1645.8 844C1737.3 845 1828.7 845 1874.3 845L1920 845L1920 1081L1874.3 1081C1828.7 1081 1737.3 1081 1645.8 1081C1554.3 1081 1462.7 1081 1371.2 1081C1279.7 1081 1188.3 1081 1097 1081C1005.7 1081 914.3 1081 823 1081C731.7 1081 640.3 1081 548.8 1081C457.3 1081 365.7 1081 274.2 1081C182.7 1081 91.3 1081 45.7 1081L0 1081Z" fill="#e34c67"></path><path d="M0 926L45.7 916C91.3 906 182.7 886 274.2 885C365.7 884 457.3 902 548.8 902.2C640.3 902.3 731.7 884.7 823 876.8C914.3 869 1005.7 871 1097 870.8C1188.3 870.7 1279.7 868.3 1371.2 881.2C1462.7 894 1554.3 922 1645.8 934.2C1737.3 946.3 1828.7 942.7 1874.3 940.8L1920 939L1920 1081L1874.3 1081C1828.7 1081 1737.3 1081 1645.8 1081C1554.3 1081 1462.7 1081 1371.2 1081C1279.7 1081 1188.3 1081 1097 1081C1005.7 1081 914.3 1081 823 1081C731.7 1081 640.3 1081 548.8 1081C457.3 1081 365.7 1081 274.2 1081C182.7 1081 91.3 1081 45.7 1081L0 1081Z" fill="#d53867"></path><path d="M0 965L45.7 974.2C91.3 983.3 182.7 1001.7 274.2 1007.8C365.7 1014 457.3 1008 548.8 1006.3C640.3 1004.7 731.7 1007.3 823 1010C914.3 1012.7 1005.7 1015.3 1097 1010.8C1188.3 1006.3 1279.7 994.7 1371.2 988.8C1462.7 983 1554.3 983 1645.8 983C1737.3 983 1828.7 983 1874.3 983L1920 983L1920 1081L1874.3 1081C1828.7 1081 1737.3 1081 1645.8 1081C1554.3 1081 1462.7 1081 1371.2 1081C1279.7 1081 1188.3 1081 1097 1081C1005.7 1081 914.3 1081 823 1081C731.7 1081 640.3 1081 548.8 1081C457.3 1081 365.7 1081 274.2 1081C182.7 1081 91.3 1081 45.7 1081L0 1081Z" fill="#c62368"></path></svg>